<svg id="Layer_1" data-name="Layer 1" xmlns="http://www.w3.org/2000/svg" viewBox="0 0 240.02 383.02"><defs><style>.cls-1{fill:#1dd460;}</style></defs><title>nexify</title><path class="cls-1" d="M48,239v49a99.76,99.76,0,0,0,49-14c25.58-15.49,36.58-39.15,40-46,10-20,4-55,23-72,10.31-9.22,22.17-11.29,32-12V95a99.25,99.25,0,0,0-37,8c-5.17,2.23-30,13.47-46,40-21.12,34.92-5.69,61-27,82C71.15,235.72,57.05,237.88,48,239Z"/><path class="cls-1" d="M240,191H191c-.31,11.65-.9,59.35-38,99-41.38,44.22-94.88,44.72-105,45v48c12.56.13,79.61-.43,134-54C238.11,273.75,240.19,203,240,191Z"/><path class="cls-1" d="M0,192H49c.31-11.65.9-59.35,38-99,41.38-44.22,94.87-44.72,105-45V0C179.45-.12,112.4.44,58,54,1.91,109.27-.18,180,0,192Z"/></svg>